<?xml version="1.0" standalone="no"?>
<!DOCTYPE svg PUBLIC "-//W3C//DTD SVG 20010904//EN"
 "http://www.w3.org/TR/2001/REC-SVG-20010904/DTD/svg10.dtd">
<svg version="1.0" xmlns="http://www.w3.org/2000/svg"
 width="404.000000pt" height="117.000000pt" viewBox="0 0 404.000000 117.000000"
 preserveAspectRatio="xMidYMid meet">
<metadata>
Created by potrace 1.16, written by Peter Selinger 2001-2019
</metadata>
<g transform="translate(0.000000,117.000000) scale(0.100000,-0.100000)"
fill="#000000" stroke="none">
<path d="M60 1160 c0 -5 -11 -10 -24 -10 -19 0 -24 -6 -30 -37 -10 -65 -7
-979 4 -1008 6 -15 19 -29 29 -32 11 -3 22 -11 25 -18 3 -8 22 -19 43 -24 53
-15 3773 -15 3826 0 20 5 37 14 37 20 0 5 11 14 25 19 14 5 30 21 35 35 6 16
10 214 10 499 0 472 -4 536 -35 536 -7 0 -18 7 -25 15 -11 13 -242 15 -1966
15 -1296 0 -1954 -3 -1954 -10z m477 -280 c31 -16 62 -30 69 -30 8 0 14 -4 14
-9 0 -5 10 -13 23 -16 12 -4 31 -15 42 -25 11 -10 32 -22 47 -25 15 -4 32 -13
38 -20 6 -8 25 -17 42 -20 18 -4 32 -15 35 -26 3 -10 15 -21 27 -25 11 -3 28
-12 36 -19 8 -7 34 -18 58 -24 23 -7 42 -16 42 -21 0 -4 3 -15 6 -24 4 -11 -3
-19 -22 -27 -16 -6 -36 -16 -44 -24 -8 -7 -42 -16 -75 -20 l-60 -6 -29 41
c-17 22 -34 40 -39 40 -5 0 -76 -66 -158 -147 -81 -82 -168 -165 -192 -185
-44 -36 -45 -37 -51 -15 -8 29 -8 208 1 395 6 151 6 152 30 152 16 0 23 6 23
20 0 17 7 20 39 20 33 0 40 -4 44 -22 4 -20 4 -19 6 5 1 23 -3 27 -24 27 -20
0 -25 5 -25 24 0 22 10 33 33 35 4 1 33 -12 64 -29z m2002 -279 c11 -7 14 -40
15 -148 1 -76 5 -146 9 -155 6 -12 3 -20 -13 -28 -46 -25 -50 -13 -50 163 0
179 3 191 39 168z m-1174 -88 c-3 -21 -11 -42 -16 -47 -5 -6 -9 -18 -9 -28 0
-28 46 -124 67 -139 11 -8 22 -22 26 -32 3 -9 17 -17 29 -17 13 0 30 -5 38
-10 34 -22 -58 -9 -108 15 -66 32 -102 89 -102 162 0 33 6 58 18 74 10 13 21
32 25 42 3 9 14 17 23 17 13 0 15 -7 9 -37z m832 -77 c15 -33 18 -34 37 -20
11 7 24 14 27 14 4 0 21 -23 39 -51 30 -49 33 -51 65 -45 31 6 34 5 40 -26 4
-18 15 -40 26 -48 20 -16 27 -61 15 -98 -9 -27 -26 -20 -26 12 0 23 -22 48
-51 59 -9 3 -19 22 -23 41 -6 30 -11 36 -31 36 -14 0 -29 8 -35 20 -15 28 -54
25 -79 -6 -12 -15 -21 -33 -21 -41 0 -8 -5 -13 -11 -11 -5 2 -11 36 -12 75 -2
51 -8 77 -20 91 -20 22 -13 32 20 32 17 0 28 -10 40 -34z"/>
</g>
</svg>
