<?xml version="1.0" standalone="no"?>
<!DOCTYPE svg PUBLIC "-//W3C//DTD SVG 20010904//EN"
 "http://www.w3.org/TR/2001/REC-SVG-20010904/DTD/svg10.dtd">
<svg version="1.0" xmlns="http://www.w3.org/2000/svg"
 width="404.000000pt" height="117.000000pt" viewBox="0 0 404.000000 117.000000"
 preserveAspectRatio="xMidYMid meet">
<metadata>
Created by potrace 1.16, written by Peter Selinger 2001-2019
</metadata>
<g transform="translate(0.000000,117.000000) scale(0.100000,-0.100000)"
fill="#000000" stroke="none">
<path d="M80 1160 c0 -5 -15 -10 -32 -10 -28 0 -33 -4 -36 -27 -9 -72 -12
-1003 -3 -1003 5 0 11 -10 13 -22 2 -13 11 -24 22 -26 11 -2 27 -14 37 -26
l17 -21 1927 0 1927 0 17 21 c10 12 26 23 36 25 11 2 22 15 26 29 11 40 10
985 -1 1014 -5 14 -16 26 -24 26 -7 0 -19 7 -26 15 -11 13 -241 15 -1956 15
-1289 0 -1944 -3 -1944 -10z m880 -378 c20 -10 37 -27 41 -42 9 -32 11 -437 3
-480 -6 -26 -15 -36 -53 -52 -29 -12 -57 -18 -76 -14 -16 3 -75 14 -130 25
-55 11 -149 29 -209 40 -59 11 -125 29 -145 39 l-36 19 -3 175 c-2 160 -1 176
16 191 21 19 147 57 189 57 16 0 53 7 83 16 63 18 198 41 250 42 19 1 51 -7
70 -16z m1230 -357 c0 -68 -3 -130 -6 -139 -5 -13 -22 -16 -80 -16 -69 0 -74
2 -74 21 0 16 4 19 18 14 56 -24 81 -16 108 36 18 36 5 73 -35 94 -24 12 -35
13 -56 3 -28 -13 -40 -6 -32 17 4 10 20 15 47 15 56 0 80 14 80 49 0 15 3 31
6 34 18 18 24 -15 24 -128z m1689 16 c17 -23 19 -34 11 -55 -8 -22 -16 -26
-49 -26 -28 0 -48 -8 -70 -26 -17 -14 -35 -23 -41 -19 -17 10 -12 95 6 102 8
3 20 16 25 29 7 20 15 24 53 24 38 0 48 -4 65 -29z"/>
<path d="M635 625 c-16 -8 -55 -14 -86 -15 -33 0 -61 -5 -67 -12 -5 -7 -9 -53
-8 -101 2 -103 5 -107 87 -107 30 0 77 -7 103 -16 37 -13 53 -14 72 -5 21 9
24 17 24 60 0 27 -4 52 -9 56 -6 3 -6 16 0 34 6 16 9 49 7 72 l-3 44 -45 2
c-25 1 -58 -4 -75 -12z"/>
</g>
</svg>
