<?xml version="1.0" standalone="no"?>
<!DOCTYPE svg PUBLIC "-//W3C//DTD SVG 20010904//EN"
 "http://www.w3.org/TR/2001/REC-SVG-20010904/DTD/svg10.dtd">
<svg version="1.0" xmlns="http://www.w3.org/2000/svg"
 width="406.000000pt" height="113.000000pt" viewBox="0 0 406.000000 113.000000"
 preserveAspectRatio="xMidYMid meet">
<metadata>
Created by potrace 1.16, written by Peter Selinger 2001-2019
</metadata>
<g transform="translate(0.000000,113.000000) scale(0.100000,-0.100000)"
fill="#000000" stroke="none">
<path d="M70 1121 c0 -5 -10 -11 -22 -13 -15 -2 -24 -11 -26 -25 -2 -13 -8
-23 -13 -23 -5 0 -9 -194 -9 -490 0 -328 3 -490 10 -490 6 0 15 -11 20 -25 5
-14 17 -25 25 -25 9 0 18 -7 21 -15 5 -13 232 -15 1955 -15 1607 0 1949 2
1956 13 4 8 16 17 26 20 11 4 21 16 24 27 3 11 9 20 14 20 5 0 9 208 9 478 0
416 -2 483 -16 510 -8 18 -22 32 -30 32 -8 0 -17 7 -20 15 -5 13 -233 15
-1965 15 -1202 0 -1959 -4 -1959 -9z m635 -384 c11 1 49 4 85 7 95 9 154 -1
185 -31 31 -32 31 -36 1 -68 -13 -14 -29 -48 -36 -74 -16 -67 1 -121 52 -167
l39 -35 -24 -53 c-14 -29 -45 -75 -70 -101 l-46 -48 -58 9 c-58 8 -101 8 -221
2 -61 -3 -63 -2 -95 35 -41 47 -87 120 -87 138 0 8 -8 28 -17 44 -26 49 -24
179 5 241 42 87 100 117 207 106 33 -3 69 -5 80 -5z m810 -181 c13 -13 29 -43
35 -67 7 -24 20 -66 30 -94 62 -179 67 -199 50 -210 -26 -16 -59 5 -70 44 -12
46 -27 60 -72 68 -43 6 -85 -26 -102 -78 -9 -26 -17 -35 -39 -37 -34 -4 -43
15 -22 54 8 16 15 37 15 47 0 10 7 34 16 55 9 20 22 57 30 82 31 105 48 142
68 150 31 13 35 12 61 -14z m1160 4 c25 -21 0 -39 -56 -38 -56 0 -79 -14 -79
-48 0 -18 12 -32 47 -54 26 -17 53 -30 60 -30 18 0 63 -70 63 -98 0 -39 -40
-100 -73 -112 -52 -18 -166 -8 -174 16 -2 5 3 18 10 27 11 15 17 16 42 7 68
-26 141 22 116 76 -6 14 -29 33 -53 43 -24 11 -59 32 -78 49 -30 25 -35 35
-34 71 2 46 39 96 78 105 36 8 115 0 131 -14z m177 -56 c7 -14 23 -31 36 -38
l24 -12 -26 -31 c-32 -37 -41 -77 -32 -138 6 -36 13 -48 37 -60 35 -19 37 -32
5 -46 -64 -29 -106 22 -106 129 0 33 -7 76 -15 95 -21 51 -19 61 16 96 37 38
46 38 61 5z m-921 -56 c41 -30 59 -68 59 -122 0 -53 -10 -80 -43 -121 -23 -27
-30 -30 -91 -30 -36 -1 -70 -5 -75 -10 -6 -6 -11 -32 -13 -59 -3 -54 -13 -64
-43 -42 -18 13 -20 29 -23 183 -3 156 -2 171 16 193 18 23 23 24 51 14 24 -10
33 -9 42 2 18 22 85 17 120 -8z m334 6 c46 -30 68 -79 63 -143 -7 -103 -69
-154 -163 -137 -39 8 -40 7 -50 -66 -6 -44 -8 -48 -34 -48 -21 0 -30 6 -35 23
-8 29 -7 325 0 355 6 22 10 23 54 17 30 -4 50 -3 55 4 10 17 82 13 110 -5z
m926 -10 c75 -52 81 -167 14 -240 -25 -26 -33 -29 -95 -29 -62 0 -72 3 -98 28
-69 66 -60 190 17 243 49 33 112 33 162 -2z m261 -4 c-1 -14 -9 -29 -18 -35
-56 -34 -58 -39 -62 -134 -5 -93 -8 -100 -46 -85 -13 5 -16 26 -16 129 0 139
5 151 63 140 22 -4 37 -3 42 5 13 21 40 6 37 -20z m256 5 c34 -29 55 -73 50
-107 -3 -21 -8 -23 -85 -28 -100 -7 -114 -17 -84 -59 20 -28 28 -31 76 -31 59
0 79 -15 49 -37 -14 -11 -37 -13 -83 -10 -54 4 -68 9 -94 35 -26 26 -31 40
-35 92 -5 73 7 106 55 143 48 36 109 37 151 2z"/>
<path d="M1803 392 c-15 -11 -25 -32 -29 -63 -6 -41 -3 -49 23 -79 25 -28 33
-32 62 -25 38 8 53 38 54 104 0 34 -5 48 -22 63 -29 23 -59 23 -88 0z"/>
<path d="M2152 400 c-30 -19 -32 -23 -32 -78 0 -73 15 -96 64 -96 44 0 56 11
65 61 11 59 0 95 -34 115 -30 17 -32 17 -63 -2z"/>
<path d="M3060 394 c-40 -46 -41 -99 -4 -144 21 -24 33 -30 57 -28 64 6 88
119 37 173 -35 37 -56 37 -90 -1z"/>
</g>
</svg>
